<?xml version="1.0" encoding="UTF-8"?>
<svg version="1.1" xmlns="http://www.w3.org/2000/svg" width="1254" height="269">
<path d="M0 0 C12.54 0 25.08 0 38 0 C38 1.65 38 3.3 38 5 C35.03 5 32.06 5 29 5 C29 5.99 29 6.98 29 8 C31.97 8 34.94 8 38 8 C38 28.79 38 49.58 38 71 C43.75695312 70.87238281 49.51390625 70.74476562 55.4453125 70.61328125 C59.11862808 70.55699547 62.7914032 70.5040411 66.46484375 70.46289062 C72.28092473 70.39742634 78.0950799 70.32046689 83.90966797 70.17016602 C88.60425567 70.0495919 93.29677615 69.98466092 97.99279404 69.95635033 C99.77343131 69.93620895 101.55397036 69.89687775 103.33371353 69.83696938 C115.25968255 69.4519291 122.34012174 71.07344788 131.2144928 79.31565857 C132.13371017 80.20149124 133.05292755 81.08732391 134 82 C135.35546169 83.09771363 136.72163403 84.1829143 138.11328125 85.234375 C139.71434383 86.49329788 141.31537366 87.75226112 142.91601562 89.01171875 C147.59740272 92.69194899 152.29934451 96.34393462 157 100 C157.33 71.62 157.66 43.24 158 14 C139.19 14 120.38 14 101 14 C104 9 104 9 105 8 C107.33297433 7.95907063 109.66705225 7.95758277 112 8 C112 7.01 112 6.02 112 5 C110.68 5 109.36 5 108 5 C109.875 1.125 109.875 1.125 111 0 C112.59838075 -0.0997475 114.20118377 -0.12923376 115.80267239 -0.13142776 C116.84844871 -0.13526891 117.89422503 -0.13911005 118.97169155 -0.1430676 C120.71620266 -0.14176787 120.71620266 -0.14176787 122.49595642 -0.14044189 C124.33271992 -0.14489858 124.33271992 -0.14489858 126.20658976 -0.1494453 C129.62095674 -0.15664902 133.03527344 -0.15930642 136.44964445 -0.16004276 C140.12591519 -0.16188843 143.80217492 -0.16943323 147.47843933 -0.17617798 C155.52371086 -0.18978135 163.56897741 -0.19578901 171.61425853 -0.20018864 C176.63337418 -0.20294744 181.6524879 -0.2071841 186.67160225 -0.21169281 C200.55571211 -0.22388764 214.43982041 -0.23418683 228.32393551 -0.2375679 C229.21318064 -0.23778747 230.10242577 -0.23800703 231.01861772 -0.23823325 C232.35575579 -0.23856067 232.35575579 -0.23856067 233.71990675 -0.2388947 C235.52640593 -0.23933817 237.33290511 -0.23978474 239.1394043 -0.24023438 C240.03549861 -0.2404558 240.93159292 -0.24067723 241.8548416 -0.24090537 C256.38373499 -0.2448557 270.91257829 -0.26231591 285.44145232 -0.2855939 C300.34183915 -0.30927535 315.24220082 -0.32176827 330.14260679 -0.32293582 C338.51520835 -0.32385434 346.88774465 -0.3296511 355.26032829 -0.34775543 C362.38805881 -0.36311319 369.5157039 -0.36830258 376.64344781 -0.36001733 C380.28317083 -0.35609549 383.9227216 -0.35711446 387.56242371 -0.37107468 C391.50071136 -0.38604265 395.43875314 -0.37799265 399.37705994 -0.36749268 C400.53783662 -0.37554908 401.69861331 -0.38360548 402.89456505 -0.39190602 C404.46714115 -0.38202126 404.46714115 -0.38202126 406.07148647 -0.3719368 C406.98151375 -0.37253389 407.89154103 -0.37313097 408.8291449 -0.37374616 C409.54552708 -0.25040992 410.26190926 -0.12707369 411 0 C413.1519437 3.22791555 413.20086443 4.28400809 413 8 C413.99 8 414.98 8 416 8 C419.71291057 21.99158955 420.30358683 34.07409757 413 47 C406.82860065 55.69006874 399.61891322 59.90402462 390 64 C390.69037354 64.68513672 391.38074707 65.37027344 392.09204102 66.07617188 C394.68712127 68.65295983 397.27873292 71.23321362 399.86938477 73.81445312 C400.9846729 74.92475584 402.10086211 76.03415429 403.21801758 77.14257812 C414.56506693 88.40324152 414.56506693 88.40324152 419.61303711 94.49414062 C421.12320617 96.25274011 421.12320617 96.25274011 424 98 C431.35148289 87.88865808 438.61788063 77.72566921 445.76391602 67.46801758 C449.63955845 61.91505848 453.5784196 56.41305357 457.5625 50.9375 C461.44970919 45.59273482 465.26000186 40.20644824 468.97412109 34.73974609 C470.06601971 33.13435479 471.16392018 31.53302763 472.26806641 29.93603516 C474.87229846 26.16755819 477.39453343 22.38634266 479.76953125 18.46875 C486.05713403 8.47172466 486.05713403 8.47172466 491.796875 7.078125 C495.33263384 7.06392517 498.53578364 7.31727123 502 8 C502 7.01 502 6.02 502 5 C498.7 5 495.4 5 492 5 C493 1 493 1 494 0 C495.79705654 -0.15137864 497.59999394 -0.2334713 499.40258789 -0.28808594 C500.55791519 -0.32351501 501.71324249 -0.35894409 502.90357971 -0.39544678 C507.51729571 -0.50287839 512.13100782 -0.59189397 516.74556828 -0.65206528 C520.24668908 -0.69816233 523.7444443 -0.7653241 527.24389648 -0.88476562 C531.27890375 -1.02197954 535.31051158 -1.06827457 539.34765625 -1.109375 C540.59378189 -1.16301208 541.83990753 -1.21664917 543.12379456 -1.27191162 C551.67203925 -1.25450972 551.67203925 -1.25450972 555.5319519 2.39190674 C557.57647072 5.18023139 559.31637919 7.98327359 561 11 C561.85955069 12.26583789 562.73047285 13.52425715 563.625 14.765625 C564.41801887 15.9261605 565.20965458 17.08764218 566 18.25 C570.58931213 24.96258993 575.22482365 31.64194789 579.875 38.3125 C585.305839 46.10690132 590.69903435 53.92513068 596.05053711 61.77416992 C601.13212851 69.21695244 606.28298162 76.61109286 611.4453125 83.99804688 C613.30345556 86.66088273 615.15449914 89.32838897 617 92 C617.59570801 92.86077148 618.19141602 93.72154297 618.80517578 94.60839844 C619.63057861 95.81931152 619.63057861 95.81931152 620.47265625 97.0546875 C620.9612915 97.76866699 621.44992676 98.48264648 621.95336914 99.21826172 C623 101 623 101 623 103 C576.47 103 529.94 103 482 103 C483.42849864 100.14300273 484.72137563 97.83597527 486.5390625 95.27734375 C487.03792969 94.57287109 487.53679687 93.86839844 488.05078125 93.14257812 C488.57027344 92.41490234 489.08976562 91.68722656 489.625 90.9375 C490.36943359 89.8865918 490.36943359 89.8865918 491.12890625 88.81445312 C492.17805646 87.33683318 493.25202804 85.87660801 494.34667969 84.43237305 C496.10837274 82.00374793 496.10837274 82.00374793 497.28613281 79.03051758 C499.16821008 75.29389826 500.54785309 73.42334194 504 71 C512.25871412 68.9803718 521.06803906 69.64649358 529.5 69.8125 C531.87238642 69.81946237 534.2447929 69.82146803 536.6171875 69.81835938 C542.41292202 69.82153902 548.20542739 69.88671839 554 70 C553.57385406 69.3750766 553.14770813 68.7501532 552.70864868 68.10629272 C550.22075063 64.45768216 547.73299214 60.80898143 545.24755859 57.15869141 C541.73413256 51.99938457 538.20954858 46.84827448 534.6640625 41.7109375 C533.97642822 40.71143066 533.28879395 39.71192383 532.58032227 38.68212891 C531.2485809 36.74695482 529.9132024 34.81427805 528.57397461 32.88427734 C527.97335205 32.00980957 527.37272949 31.1353418 526.75390625 30.234375 C526.22095947 29.46319336 525.6880127 28.69201172 525.13891602 27.89746094 C524 26 524 26 524 24 C523.34 24 522.68 24 522 24 C521.78214844 24.67417969 521.56429687 25.34835938 521.33984375 26.04296875 C519.58670957 29.91213078 517.16112467 32.97240218 514.5625 36.3125 C510.39739859 41.76288647 506.35772887 47.26511578 502.5 52.9375 C497.26686362 60.62696805 491.91994434 68.23027099 486.54248047 75.81933594 C484.95270224 78.06686666 483.36824393 80.31806491 481.78515625 82.5703125 C480.99129517 83.6986853 480.99129517 83.6986853 480.18139648 84.84985352 C479.18132863 86.27159704 478.18207325 87.6939126 477.18383789 89.11694336 C476.28855988 90.38832276 475.38492345 91.65388036 474.47090816 92.91185665 C473.51143515 94.27395201 472.59432587 95.66719095 471.7287302 97.09079075 C468.21259401 102.53004744 468.21259401 102.53004744 465.02477837 103.76551628 C462.680559 104.08961714 460.44639969 104.16126938 458.07983398 104.14624023 C457.20251114 104.17150284 456.32518829 104.19676544 455.42127991 104.22279358 C452.52857328 104.29352461 449.6396124 104.30444182 446.74609375 104.30859375 C444.72313416 104.33178262 442.70018944 104.35630421 440.67726135 104.38209534 C436.4360811 104.42545578 432.19621129 104.43631783 427.95483398 104.42749023 C422.54768846 104.42110612 417.1482108 104.51965744 411.74276638 104.64646816 C407.56165055 104.728407 403.38234639 104.74093677 399.20051765 104.73466682 C397.20981123 104.74220684 395.21903339 104.77364144 393.22912407 104.83047295 C376.94004304 105.24951874 376.94004304 105.24951874 370.97537231 99.7583313 C368.10257315 96.67008327 365.63700782 93.37142598 363.28721809 89.87375069 C361.34719808 87.04974296 359.15121005 84.48859513 356.9375 81.875 C353.04611621 77.07985913 353.04611621 77.07985913 351.49468994 74.39326477 C347.71863541 70.77073111 344.23757605 71.29416088 339.18261719 71.34057617 C338.18716888 71.33009247 337.19172058 71.31960876 336.16610718 71.30880737 C332.87604796 71.28000776 329.58703794 71.28635493 326.296875 71.29296875 C324.01571327 71.27985676 321.73456317 71.26455408 319.45343018 71.24714661 C313.4495636 71.20722585 307.44600025 71.19710155 301.4420166 71.19311523 C295.31541707 71.18379721 289.18899671 71.14639198 283.0625 71.11132812 C271.041633 71.04667982 259.02103018 71.01609452 247 71 C247 81.56 247 92.12 247 103 C234.46 103 221.92 103 209 103 C209 82.21 209 61.42 209 40 C216.06329712 39.98598145 216.06329712 39.98598145 223.26928711 39.97167969 C238.8277593 39.93791185 254.38609945 39.88256452 269.94446468 39.81609726 C279.37744868 39.77632516 288.81034946 39.74392337 298.2434082 39.72900391 C306.46737747 39.71597791 314.69116352 39.68898906 322.91502959 39.64538693 C327.26763024 39.62279341 331.6200051 39.60708805 335.9726696 39.60811615 C340.07432377 39.60886401 344.17547918 39.59086293 348.27700424 39.55883217 C349.77771668 39.55035315 351.2784852 39.54856963 352.77921104 39.55419731 C361.80477258 39.58351988 369.88835277 39.33715522 377.0625 33.25 C378.50298391 29.79283861 378.73926644 26.62659009 378 23 C374.93754699 18.13610404 372.46776398 16.42637224 367 15 C363.5287245 14.69225825 363.5287245 14.69225825 359.78665161 14.7215271 C359.08323761 14.7157347 358.37982361 14.7099423 357.65509403 14.70397437 C355.31054285 14.68704073 352.96618931 14.68410364 350.62158203 14.68115234 C348.93598451 14.67184958 347.25039158 14.66168038 345.56480408 14.65071106 C340.99713296 14.62343631 336.42949265 14.60826912 331.86176157 14.59528303 C327.08512246 14.57964147 322.30854614 14.5528545 317.5319519 14.5272522 C308.49047891 14.48048261 299.44899407 14.44372967 290.407462 14.41057932 C278.18703221 14.36519443 265.96668015 14.30432848 253.746315 14.24433136 C234.49758232 14.15023575 215.24882735 14.07681742 196 14 C196 43.37 196 72.74 196 103 C131.32 103 66.64 103 0 103 C0 69.01 0 35.02 0 0 Z M13 5 C13 5.99 13 6.98 13 8 C14.32 8 15.64 8 17 8 C17 7.01 17 6.02 17 5 C15.68 5 14.36 5 13 5 Z M124 5 C124 5.99 124 6.98 124 8 C129.28 8 134.56 8 140 8 C140 7.01 140 6.02 140 5 C134.72 5 129.44 5 124 5 Z M158 5 C158 5.99 158 6.98 158 8 C158.99 8 159.98 8 161 8 C161 7.01 161 6.02 161 5 C160.01 5 159.02 5 158 5 Z M174 5 C174 5.99 174 6.98 174 8 C177.3 8 180.6 8 184 8 C184 7.01 184 6.02 184 5 C180.7 5 177.4 5 174 5 Z M196 5 C196 5.99 196 6.98 196 8 C201.28 8 206.56 8 212 8 C212 7.01 212 6.02 212 5 C206.72 5 201.44 5 196 5 Z M230 5 C230 5.99 230 6.98 230 8 C231.32 8 232.64 8 234 8 C234 7.01 234 6.02 234 5 C232.68 5 231.36 5 230 5 Z M246 5 C246 5.99 246 6.98 246 8 C249.3 8 252.6 8 256 8 C256 7.01 256 6.02 256 5 C252.7 5 249.4 5 246 5 Z M269 5 C269 5.99 269 6.98 269 8 C274.28 8 279.56 8 285 8 C285 7.01 285 6.02 285 5 C279.72 5 274.44 5 269 5 Z M302 5 C302 5.99 302 6.98 302 8 C303.32 8 304.64 8 306 8 C306 7.01 306 6.02 306 5 C304.68 5 303.36 5 302 5 Z M318 5 C318 5.99 318 6.98 318 8 C321.63 8 325.26 8 329 8 C329 7.01 329 6.02 329 5 C325.37 5 321.74 5 318 5 Z M341 5 C341 5.99 341 6.98 341 8 C346.28 8 351.56 8 357 8 C357 7.01 357 6.02 357 5 C351.72 5 346.44 5 341 5 Z M375 5 C375 5.99 375 6.98 375 8 C375.99 8 376.98 8 378 8 C378 7.01 378 6.02 378 5 C377.01 5 376.02 5 375 5 Z M391 5 C391 5.99 391 6.98 391 8 C394.3 8 397.6 8 401 8 C401 7.01 401 6.02 401 5 C397.7 5 394.4 5 391 5 Z M519 5 C519 5.99 519 6.98 519 8 C520.32 8 521.64 8 523 8 C523 7.01 523 6.02 523 5 C521.68 5 520.36 5 519 5 Z M535 5 C535 5.99 535 6.98 535 8 C538.63 8 542.26 8 546 8 C546 7.01 546 6.02 546 5 C542.37 5 538.74 5 535 5 Z " fill="#F49537" transform="translate(402,21)"/>
<path d="M0 0 C1.77684995 -0.01977824 1.77684995 -0.01977824 3.58959585 -0.03995603 C6.86558942 -0.06822707 10.13922079 -0.060762 13.4151839 -0.03785813 C16.95254069 -0.02178964 20.48955445 -0.05179858 24.02682495 -0.07577515 C30.95168183 -0.11517792 37.87586278 -0.11124185 44.80077832 -0.09149904 C50.42989501 -0.07615669 56.05881865 -0.07608273 61.68794441 -0.08686638 C62.48954096 -0.08838097 63.29113751 -0.08989555 64.11702486 -0.09145604 C65.74553833 -0.09458619 67.37405174 -0.0977456 69.00256509 -0.10093396 C84.26927731 -0.1289111 99.53561222 -0.10709379 114.80228163 -0.06874692 C127.89581433 -0.03709735 140.98868518 -0.05032012 154.08216858 -0.09580994 C169.29320399 -0.14864714 184.50383308 -0.17196088 199.7149573 -0.14956087 C201.33773801 -0.14726416 202.9605188 -0.14501207 204.58329964 -0.1428051 C205.78090169 -0.14116486 205.78090169 -0.14116486 207.00269772 -0.13949149 C212.62318994 -0.13387808 218.24339244 -0.14949316 223.86382866 -0.17349434 C230.71632673 -0.2022568 237.56791893 -0.19904837 244.42035072 -0.15501971 C247.91550836 -0.13338504 251.40910993 -0.12603944 254.9042244 -0.15791702 C258.69702519 -0.18474789 262.4855116 -0.15616113 266.27807617 -0.11352539 C267.92852233 -0.14466331 267.92852233 -0.14466331 269.61231083 -0.17643028 C274.14010608 -0.07516369 277.04956469 0.09171202 280.64521515 2.99478447 C291.05473954 14.50372248 295.98002806 29.10994714 295.55018616 44.56556702 C293.89241633 61.05013219 287.56147448 74.76296682 275.20252991 86.02259827 C256.65835397 100.55090887 237.00479916 103.49512952 214.15174866 103.31556702 C212.04040836 103.30996104 209.92906412 103.30569568 207.81771851 103.30270386 C202.30219963 103.29133394 196.78692359 103.26193559 191.27149963 103.22859192 C184.63166063 103.19227786 177.99173974 103.17869245 171.35182953 103.16123199 C161.3018949 103.13229265 151.25249146 103.07475067 141.20252991 103.02259827 C141.20252991 77.94259827 141.20252991 52.86259827 141.20252991 27.02259827 C177.56616627 43.38623463 177.56616627 43.38623463 179.20252991 45.02259827 C179.29001198 46.94927334 179.30950325 48.87911688 179.30018616 50.80775452 C179.2969635 51.97757874 179.29374084 53.14740295 179.29042053 54.35267639 C179.28204163 55.58437561 179.27366272 56.81607483 179.26502991 58.08509827 C179.26051819 59.32066467 179.25600647 60.55623108 179.25135803 61.82923889 C179.23952598 64.89373944 179.22304164 67.95814548 179.20252991 71.02259827 C186.4071262 70.98071007 193.61096364 70.90817128 200.81507874 70.81507874 C203.26194905 70.78698534 205.70890815 70.76571343 208.15589905 70.75160217 C211.68882832 70.73001165 215.22070298 70.68327713 218.75331116 70.63197327 C219.83397354 70.63074463 220.91463593 70.62951599 222.02804565 70.62825012 C233.12227201 70.41795136 242.99699913 67.3491879 250.89002991 59.27259827 C255.35730985 52.99425889 257.35117708 46.74405979 256.20252991 39.02259827 C254.13426854 31.67248663 251.18165402 25.47491772 244.56581116 21.39759827 C232.41062228 14.92313147 220.80133269 14.72958524 207.33534241 14.7638092 C205.5373063 14.76109536 203.73927131 14.75753222 201.9412384 14.75318909 C197.081782 14.74410965 192.22241099 14.74759094 187.36295319 14.75394726 C182.26406636 14.75903033 177.16518657 14.75430941 172.06629944 14.75117493 C163.50557653 14.747542 154.94488819 14.75231671 146.38417053 14.76185608 C136.50369305 14.77273932 126.62329813 14.76921327 116.74282265 14.75820327 C108.24146636 14.74911121 99.74013484 14.74785449 91.23877525 14.75308061 C86.16924563 14.75618976 81.09975475 14.75663872 76.03022766 14.75000763 C71.26295886 14.74420685 66.49579594 14.74828087 61.72853851 14.75979614 C59.98472011 14.76242816 58.2408927 14.76170274 56.49707794 14.75727081 C40.65359487 14.53788069 40.65359487 14.53788069 25.82752991 19.52259827 C25.03604553 19.94541077 24.24456116 20.36822327 23.42909241 20.80384827 C22.32694397 21.40712952 22.32694397 21.40712952 21.20252991 22.02259827 C20.48838928 22.32166077 19.77424866 22.62072327 19.03846741 22.92884827 C16.71457068 24.31329738 16.23279221 25.55454769 15.20252991 28.02259827 C14.86092834 28.62459045 14.51932678 29.22658264 14.16737366 29.84681702 C10.39941742 36.68071484 9.31635024 42.61040409 11.39002991 50.21009827 C14.23389189 58.38778139 18.54338526 63.0769783 26.20252991 67.02259827 C33.39283277 70.13883825 40.13177583 70.49060662 47.89393616 70.53431702 C49.07978806 70.55226822 50.26563995 70.57021942 51.48742676 70.5887146 C55.24659247 70.64256596 59.00563302 70.67663325 62.76502991 70.71009827 C65.3255941 70.74329346 67.88614184 70.77778514 70.44667053 70.81361389 C76.69853301 70.89827832 82.95035997 70.96520982 89.20252991 71.02259827 C89.20252991 65.74259827 89.20252991 60.46259827 89.20252991 55.02259827 C68.74252991 55.02259827 48.28252991 55.02259827 27.20252991 55.02259827 C30.57374897 49.40389982 30.57374897 49.40389982 32.87440491 46.78822327 C33.37456116 46.21330139 33.87471741 45.63837952 34.39002991 45.04603577 C35.16346741 44.1681842 35.16346741 44.1681842 35.95252991 43.27259827 C36.97037961 42.11308907 37.985976 40.95159829 38.99940491 39.78822327 C39.50606186 39.22717392 40.01271881 38.66612457 40.534729 38.08807373 C42.26869485 36.0754154 42.26869485 36.0754154 43.42269897 33.7170105 C45.08970128 30.82922584 46.53496535 29.05094228 49.20252991 27.02259827 C55.11917382 25.73923467 60.92355472 25.97272043 66.94862366 26.14369202 C68.68736467 26.16049405 70.42614852 26.1732977 72.16494751 26.18228149 C76.72485062 26.21652227 81.2821422 26.30481415 85.84101868 26.40461731 C91.31966429 26.51321298 96.79918704 26.55425525 102.2786026 26.60669708 C110.58839038 26.69375423 118.8924574 26.8662415 127.20252991 27.02259827 C127.20252991 52.10259827 127.20252991 77.18259827 127.20252991 103.02259827 C103.92605089 103.1830335 103.92605089 103.1830335 93.90760803 103.21791077 C87.10515159 103.24170552 80.30291306 103.26967472 73.50062561 103.32435608 C68.00869821 103.36822125 62.51700493 103.39182019 57.0249157 103.40210724 C54.94282287 103.40942632 52.860741 103.42371571 50.77874947 103.44551849 C35.29758292 103.60100421 19.76515708 102.90173866 5.82752991 95.33509827 C5.17453918 94.99188538 4.52154846 94.64867249 3.84877014 94.2950592 C-10.82289508 86.30905631 -21.82583101 74.12820219 -26.79747009 58.02259827 C-30.64995123 41.90300615 -28.96826855 26.68839833 -20.90684509 12.12025452 C-20.21075134 11.09802795 -19.51465759 10.07580139 -18.79747009 9.02259827 C-18.36104877 8.35713519 -17.92462746 7.69167212 -17.47498125 7.00604349 C-12.45143769 0.25324622 -8.11062692 -0.12626253 0 0 Z M-8.79747009 6.02259827 C-8.79747009 7.01259827 -8.79747009 8.00259827 -8.79747009 9.02259827 C-7.47747009 9.02259827 -6.15747009 9.02259827 -4.79747009 9.02259827 C-4.79747009 8.03259827 -4.79747009 7.04259827 -4.79747009 6.02259827 C-6.11747009 6.02259827 -7.43747009 6.02259827 -8.79747009 6.02259827 Z M8.20252991 6.02259827 C8.20252991 7.01259827 8.20252991 8.00259827 8.20252991 9.02259827 C11.50252991 9.02259827 14.80252991 9.02259827 18.20252991 9.02259827 C18.20252991 8.03259827 18.20252991 7.04259827 18.20252991 6.02259827 C14.90252991 6.02259827 11.60252991 6.02259827 8.20252991 6.02259827 Z M31.20252991 6.02259827 C31.20252991 7.01259827 31.20252991 8.00259827 31.20252991 9.02259827 C36.48252991 9.02259827 41.76252991 9.02259827 47.20252991 9.02259827 C47.20252991 8.03259827 47.20252991 7.04259827 47.20252991 6.02259827 C41.92252991 6.02259827 36.64252991 6.02259827 31.20252991 6.02259827 Z M66.20252991 6.02259827 C66.20252991 7.01259827 66.20252991 8.00259827 66.20252991 9.02259827 C67.52252991 9.02259827 68.84252991 9.02259827 70.20252991 9.02259827 C70.20252991 8.03259827 70.20252991 7.04259827 70.20252991 6.02259827 C68.88252991 6.02259827 67.56252991 6.02259827 66.20252991 6.02259827 Z M82.20252991 6.02259827 C82.20252991 7.01259827 82.20252991 8.00259827 82.20252991 9.02259827 C85.83252991 9.02259827 89.46252991 9.02259827 93.20252991 9.02259827 C93.20252991 8.03259827 93.20252991 7.04259827 93.20252991 6.02259827 C89.57252991 6.02259827 85.94252991 6.02259827 82.20252991 6.02259827 Z M105.20252991 6.02259827 C105.20252991 7.01259827 105.20252991 8.00259827 105.20252991 9.02259827 C110.81252991 9.02259827 116.42252991 9.02259827 122.20252991 9.02259827 C122.20252991 8.03259827 122.20252991 7.04259827 122.20252991 6.02259827 C116.59252991 6.02259827 110.98252991 6.02259827 105.20252991 6.02259827 Z M140.20252991 6.02259827 C140.20252991 7.01259827 140.20252991 8.00259827 140.20252991 9.02259827 C141.52252991 9.02259827 142.84252991 9.02259827 144.20252991 9.02259827 C144.20252991 8.03259827 144.20252991 7.04259827 144.20252991 6.02259827 C142.88252991 6.02259827 141.56252991 6.02259827 140.20252991 6.02259827 Z M157.20252991 6.02259827 C157.20252991 7.01259827 157.20252991 8.00259827 157.20252991 9.02259827 C160.50252991 9.02259827 163.80252991 9.02259827 167.20252991 9.02259827 C167.20252991 8.03259827 167.20252991 7.04259827 167.20252991 6.02259827 C163.90252991 6.02259827 160.60252991 6.02259827 157.20252991 6.02259827 Z M180.20252991 6.02259827 C180.20252991 7.01259827 180.20252991 8.00259827 180.20252991 9.02259827 C185.48252991 9.02259827 190.76252991 9.02259827 196.20252991 9.02259827 C196.20252991 8.03259827 196.20252991 7.04259827 196.20252991 6.02259827 C190.92252991 6.02259827 185.64252991 6.02259827 180.20252991 6.02259827 Z M214.20252991 6.02259827 C214.20252991 7.01259827 214.20252991 8.00259827 214.20252991 9.02259827 C215.52252991 9.02259827 216.84252991 9.02259827 218.20252991 9.02259827 C218.20252991 8.03259827 218.20252991 7.04259827 218.20252991 6.02259827 C216.88252991 6.02259827 215.56252991 6.02259827 214.20252991 6.02259827 Z M231.20252991 6.02259827 C231.20252991 7.01259827 231.20252991 8.00259827 231.20252991 9.02259827 C234.50252991 9.02259827 237.80252991 9.02259827 241.20252991 9.02259827 C241.20252991 8.03259827 241.20252991 7.04259827 241.20252991 6.02259827 C237.90252991 6.02259827 234.60252991 6.02259827 231.20252991 6.02259827 Z M254.20252991 6.02259827 C254.20252991 7.01259827 254.20252991 8.00259827 254.20252991 9.02259827 C259.48252991 9.02259827 264.76252991 9.02259827 270.20252991 9.02259827 C270.20252991 8.03259827 270.20252991 7.04259827 270.20252991 6.02259827 C264.92252991 6.02259827 259.64252991 6.02259827 254.20252991 6.02259827 Z " fill="#FFFFFF" transform="translate(396.79747009277344,159.97740173339844)"/>
<path d="M0 0 C10.17314103 9.30154662 16.2305198 23.0923983 17.12280273 36.8190918 C17.22225103 40.37519093 17.23997549 43.92304794 17.23046875 47.48046875 C17.24658203 48.67478516 17.26269531 49.86910156 17.27929688 51.09960938 C17.28775061 66.62911965 12.87974375 82.48238252 1.83984375 93.9375 C-20.85366357 114.3708816 -53.26777761 114.75551972 -82.08203125 113.66796875 C-101.74440799 112.2980993 -124.11010374 107.74385103 -138.08203125 92.66796875 C-152.19847726 75.61187238 -153.42186631 55.93450074 -152.08203125 34.66796875 C-150.22730707 18.95928718 -143.18126319 6.76679435 -131.08203125 -3.33203125 C-127.55039421 -5.70285166 -123.95269947 -7.57938354 -120.08203125 -9.33203125 C-119.35242188 -9.69683594 -118.6228125 -10.06164062 -117.87109375 -10.4375 C-85.04983714 -25.46618066 -28.39006669 -23.61154061 0 0 Z M-71.33203125 -7.64453125 C-73.35161343 -5.47456511 -73.35161343 -5.47456511 -73.01953125 -2.76953125 C-72.30320504 -0.28533964 -72.30320504 -0.28533964 -70.48706055 0.91918945 C-69.08203125 2.66796875 -69.08203125 2.66796875 -69.10864258 5.57885742 C-69.29193115 6.73619385 -69.47521973 7.89353027 -69.6640625 9.0859375 C-69.85419922 10.33955078 -70.04433594 11.59316406 -70.24023438 12.88476562 C-70.45797179 14.20839286 -70.67607548 15.53195989 -70.89453125 16.85546875 C-71.10244985 18.19051653 -71.30884863 19.52580195 -71.51367188 20.86132812 C-72.0215267 24.13285804 -72.54488439 27.40114208 -73.08203125 30.66796875 C-74.19707031 30.78269531 -75.31210937 30.89742187 -76.4609375 31.015625 C-80.21118534 31.27992656 -80.21118534 31.27992656 -82.01953125 34.10546875 C-83.20970292 36.51354235 -83.20970292 36.51354235 -83.08203125 38.66796875 C-83.96463623 38.51650391 -84.84724121 38.36503906 -85.7565918 38.20898438 C-89.04543464 37.64660415 -92.33486413 37.08793619 -95.62475586 36.53173828 C-97.04590538 36.29070097 -98.46680847 36.04820586 -99.88745117 35.80419922 C-101.93474598 35.45282463 -103.98288276 35.10677943 -106.03125 34.76171875 C-107.26190186 34.55224609 -108.49255371 34.34277344 -109.76049805 34.12695312 C-112.5979974 33.73485472 -115.22574742 33.57315435 -118.08203125 33.66796875 C-118.02015625 32.49234375 -118.02015625 32.49234375 -117.95703125 31.29296875 C-117.79474391 28.50680756 -117.79474391 28.50680756 -120.08203125 26.66796875 C-123.03972302 26.16786351 -123.03972302 26.16786351 -126.08203125 26.66796875 C-128.16059205 28.24492507 -128.16059205 28.24492507 -129.08203125 30.66796875 C-129.08838371 33.30334383 -129.08838371 33.30334383 -128.08203125 35.66796875 C-125.33729089 37.97157636 -125.33729089 37.97157636 -122.64453125 37.35546875 C-121.2068359 36.96974561 -119.77353314 36.55890332 -118.37011719 36.06274414 C-115.0599854 35.49162985 -112.21602453 36.10856824 -108.91015625 36.6640625 C-108.22773865 36.77645767 -107.54532104 36.88885284 -106.84222412 37.00465393 C-104.67082575 37.36406112 -102.50149786 37.73459716 -100.33203125 38.10546875 C-98.85689368 38.35164872 -97.38163427 38.59709979 -95.90625 38.84179688 C-92.29672683 39.44208089 -88.68897572 40.0523574 -85.08203125 40.66796875 C-85.41203125 42.31796875 -85.74203125 43.96796875 -86.08203125 45.66796875 C-93.01203125 46.98796875 -99.94203125 48.30796875 -107.08203125 49.66796875 C-107.08203125 49.00796875 -107.08203125 48.34796875 -107.08203125 47.66796875 C-108.56703125 47.17296875 -108.56703125 47.17296875 -110.08203125 46.66796875 C-111.07203125 47.32796875 -112.06203125 47.98796875 -113.08203125 48.66796875 C-112.75203125 50.31796875 -112.42203125 51.96796875 -112.08203125 53.66796875 C-110.59703125 54.16296875 -110.59703125 54.16296875 -109.08203125 54.66796875 C-108.52386719 54.22839844 -107.96570313 53.78882813 -107.390625 53.3359375 C-104.22188097 51.04650654 -100.91730953 50.60983833 -97.14453125 49.98046875 C-96.44134766 49.85091797 -95.73816406 49.72136719 -95.01367188 49.58789062 C-91.33362369 48.93603579 -87.81936921 48.51437952 -84.08203125 48.66796875 C-84.08203125 49.98796875 -84.08203125 51.30796875 -84.08203125 52.66796875 C-83.46328125 52.81234375 -82.84453125 52.95671875 -82.20703125 53.10546875 C-80.08203125 53.66796875 -80.08203125 53.66796875 -78.08203125 54.66796875 C-79.4358774 61.19104567 -79.4358774 61.19104567 -82.70703125 63.60546875 C-83.49078125 63.95609375 -84.27453125 64.30671875 -85.08203125 64.66796875 C-84.58703125 68.13296875 -84.58703125 68.13296875 -84.08203125 71.66796875 C-80.01123917 72.81880015 -80.01123917 72.81880015 -76.20703125 71.54296875 C-74.74430817 69.10509694 -74.78771906 67.46393455 -75.08203125 64.66796875 C-75.41203125 64.33796875 -75.74203125 64.00796875 -76.08203125 63.66796875 C-76.22318286 60.99738024 -76.12450232 58.34364637 -76.08203125 55.66796875 C-73.77203125 55.99796875 -71.46203125 56.32796875 -69.08203125 56.66796875 C-64.13203125 72.50796875 -64.13203125 72.50796875 -59.08203125 88.66796875 C-60.56703125 89.16296875 -60.56703125 89.16296875 -62.08203125 89.66796875 C-64.09737038 92.28790962 -64.07927721 93.82219518 -64.01953125 97.16796875 C-63.33165444 100.7360646 -63.33165444 100.7360646 -60.95703125 103.16796875 C-57.13239941 105.16342884 -55.18571804 104.86176854 -51.08203125 103.66796875 C-48.41007774 101.6991609 -47.33168869 100.3170781 -46.14453125 97.23046875 C-46.06055062 93.7872628 -46.96028725 92.35551115 -49.08203125 89.66796875 C-52.04443373 87.52022695 -53.39649981 86.66796875 -57.08203125 86.66796875 C-62.03203125 71.32296875 -62.03203125 71.32296875 -67.08203125 55.66796875 C-65.43203125 54.34796875 -63.78203125 53.02796875 -62.08203125 51.66796875 C-61.13328125 52.18359375 -60.18453125 52.69921875 -59.20703125 53.23046875 C-58.17578125 53.70484375 -57.14453125 54.17921875 -56.08203125 54.66796875 C-55.42203125 54.33796875 -54.76203125 54.00796875 -54.08203125 53.66796875 C-56.39203125 52.34796875 -58.70203125 51.02796875 -61.08203125 49.66796875 C-60.75203125 46.69796875 -60.42203125 43.72796875 -60.08203125 40.66796875 C-58.97085938 40.60738281 -57.8596875 40.54679687 -56.71484375 40.484375 C-47.16580098 39.97305285 -47.16580098 39.97305285 -37.64453125 39.10546875 C-26.90414991 38.0240993 -26.90414991 38.0240993 -23.08203125 38.66796875 C-20.39453125 41.16796875 -20.39453125 41.16796875 -18.08203125 43.66796875 C-14.11726719 44.29398413 -12.08441104 44.32742914 -8.70703125 42.10546875 C-6.49871638 38.79299645 -6.01328616 36.65518404 -6.08203125 32.66796875 C-7.90872063 29.09259719 -7.90872063 29.09259719 -11.08203125 26.66796875 C-14.58203125 25.75130208 -14.58203125 25.75130208 -18.08203125 26.66796875 C-21.2415743 29.20934034 -22.79744011 30.81419534 -24.08203125 34.66796875 C-36.35696891 36.66769863 -48.69295671 37.67210362 -61.08203125 38.66796875 C-61.72631836 36.34887695 -61.72631836 36.34887695 -62.08203125 33.66796875 C-60.31729907 31.455335 -58.71476153 29.73044152 -56.64453125 27.85546875 C-55.85079102 27.10233398 -55.85079102 27.10233398 -55.04101562 26.33398438 C-53.73442161 25.09801707 -52.40987062 23.8810828 -51.08203125 22.66796875 C-51.57703125 21.67796875 -51.57703125 21.67796875 -52.08203125 20.66796875 C-52.86707031 21.54582031 -53.65210938 22.42367187 -54.4609375 23.328125 C-55.52103231 24.46327077 -56.58229215 25.59732931 -57.64453125 26.73046875 C-58.15822266 27.31119141 -58.67191406 27.89191406 -59.20117188 28.49023438 C-59.72001953 29.03486328 -60.23886719 29.57949219 -60.7734375 30.140625 C-61.23951416 30.64859619 -61.70559082 31.15656738 -62.18579102 31.67993164 C-65.21480946 33.25820351 -67.84106214 32.31548982 -71.08203125 31.66796875 C-70.46421476 27.46529117 -69.8248121 23.26663591 -69.16552734 19.0703125 C-68.94444624 17.6434816 -68.72920611 16.21573257 -68.52001953 14.78710938 C-68.21761717 12.7290535 -67.89409218 10.67525649 -67.56640625 8.62109375 C-67.37788086 7.38520508 -67.18935547 6.14931641 -66.99511719 4.87597656 C-65.98558156 1.32910539 -64.75661531 0.09828603 -62.08203125 -2.33203125 C-61.99397979 -4.97540865 -61.99397979 -4.97540865 -63.08203125 -7.33203125 C-66.63609033 -9.70140397 -67.85420145 -10.2529036 -71.33203125 -7.64453125 Z M-46.01953125 6.60546875 C-47.7285912 9.92305572 -47.26378148 12.97238078 -47.08203125 16.66796875 C-41.86178075 17.08212384 -41.86178075 17.08212384 -37.01953125 15.60546875 C-35.52965064 12.52638215 -36.40720607 9.91939917 -37.08203125 6.66796875 C-41.63695316 5.55436585 -41.63695316 5.55436585 -46.01953125 6.60546875 Z M-97.08203125 11.66796875 C-98.5263398 14.55658584 -98.45891631 16.46444576 -98.08203125 19.66796875 C-95.7423508 22.67612933 -94.120974 24.34639123 -90.45703125 25.48046875 C-87.98064715 25.70731999 -87.98064715 25.70731999 -85.08203125 25.66796875 C-82.89453125 28.66796875 -82.89453125 28.66796875 -81.08203125 31.66796875 C-80.75203125 31.00796875 -80.42203125 30.34796875 -80.08203125 29.66796875 C-80.59765625 28.88421875 -81.11328125 28.10046875 -81.64453125 27.29296875 C-82.35609375 25.99359375 -82.35609375 25.99359375 -83.08203125 24.66796875 C-82.26953125 22.85546875 -82.26953125 22.85546875 -81.08203125 20.66796875 C-80.29661418 15.55126639 -80.29661418 15.55126639 -82.25 11.0390625 C-84.53936298 8.97333909 -86.63604412 7.76586836 -89.64453125 7.10546875 C-92.91033583 7.85911596 -94.66729205 9.38738173 -97.08203125 11.66796875 Z M-86.08203125 52.66796875 C-86.41203125 53.32796875 -86.74203125 53.98796875 -87.08203125 54.66796875 C-86.09203125 54.33796875 -85.10203125 54.00796875 -84.08203125 53.66796875 C-84.74203125 53.33796875 -85.40203125 53.00796875 -86.08203125 52.66796875 Z M-89.08203125 54.66796875 C-89.41203125 55.32796875 -89.74203125 55.98796875 -90.08203125 56.66796875 C-89.09203125 56.33796875 -88.10203125 56.00796875 -87.08203125 55.66796875 C-87.74203125 55.33796875 -88.40203125 55.00796875 -89.08203125 54.66796875 Z M-52.08203125 55.66796875 C-50.14806617 57.92426135 -48.8362585 58.76828416 -46.01953125 59.91796875 C-43.08203125 61.66796875 -43.08203125 61.66796875 -41.76953125 65.29296875 C-41.54265625 66.40671875 -41.31578125 67.52046875 -41.08203125 68.66796875 C-39.97553568 69.98331663 -39.97553568 69.98331663 -37.20703125 69.98046875 C-34.05064105 69.96913818 -34.05064105 69.96913818 -32.14453125 67.98046875 C-30.79233683 65.03745736 -30.97134719 63.68268262 -32.08203125 60.66796875 C-34.9427789 58.25204617 -34.9427789 58.25204617 -38.26953125 59.29296875 C-42.76043136 59.73469663 -44.59384611 58.77408784 -48.3828125 56.578125 C-50.05459752 55.51058036 -50.05459752 55.51058036 -52.08203125 55.66796875 Z M-92.08203125 56.66796875 C-97.52703125 60.62796875 -97.52703125 60.62796875 -103.08203125 64.66796875 C-99.24439098 64.66796875 -97.9671704 63.4026154 -94.89453125 61.16796875 C-93.99347656 60.51828125 -93.09242188 59.86859375 -92.1640625 59.19921875 C-91.47699219 58.69390625 -90.78992188 58.18859375 -90.08203125 57.66796875 C-90.74203125 57.33796875 -91.40203125 57.00796875 -92.08203125 56.66796875 Z M-105.08203125 65.66796875 C-105.41203125 66.32796875 -105.74203125 66.98796875 -106.08203125 67.66796875 C-105.09203125 67.33796875 -104.10203125 67.00796875 -103.08203125 66.66796875 C-103.74203125 66.33796875 -104.40203125 66.00796875 -105.08203125 65.66796875 Z M-108.08203125 67.66796875 C-108.41203125 68.32796875 -108.74203125 68.98796875 -109.08203125 69.66796875 C-108.09203125 69.33796875 -107.10203125 69.00796875 -106.08203125 68.66796875 C-106.74203125 68.33796875 -107.40203125 68.00796875 -108.08203125 67.66796875 Z M-117.08203125 68.66796875 C-119.22452996 70.98186736 -120.08203125 72.08385848 -120.08203125 75.29296875 C-119.27808871 77.91441716 -119.27808871 77.91441716 -116.51953125 78.98046875 C-115.71515625 79.20734375 -114.91078125 79.43421875 -114.08203125 79.66796875 C-111.46045702 78.07203259 -111.46045702 78.07203259 -109.08203125 75.66796875 C-108.66393924 72.49948848 -108.66393924 72.49948848 -109.08203125 69.66796875 C-111.72203125 69.33796875 -114.36203125 69.00796875 -117.08203125 68.66796875 Z " fill="#FFFFFF" transform="translate(857.08203125,155.33203125)"/>
<path d="M0 0 C16.17 0 32.34 0 49 0 C49.99 2.475 49.99 2.475 51 5 C47.7 5 44.4 5 41 5 C41 5.99 41 6.98 41 8 C41.79664063 7.89558594 42.59328125 7.79117188 43.4140625 7.68359375 C44.47367188 7.60238281 45.53328125 7.52117187 46.625 7.4375 C47.66914062 7.33308594 48.71328125 7.22867188 49.7890625 7.12109375 C54.21368396 8.33221276 55.23606907 10.54627626 57.53515625 14.37670898 C58.01855469 15.24239502 58.50195312 16.10808105 59 17 C59.70189453 18.22795288 59.70189453 18.22795288 60.41796875 19.48071289 C61.87295726 22.07518979 63.28460704 24.68951527 64.6875 27.3125 C65.7274861 29.23848567 66.76786027 31.16426183 67.80859375 33.08984375 C68.59532471 34.54946533 68.59532471 34.54946533 69.39794922 36.03857422 C71.99052895 40.83101436 74.6199566 45.60304718 77.25 50.375 C77.72783936 51.24294189 78.20567871 52.11088379 78.69799805 53.00512695 C79.79826908 55.00363667 80.89892933 57.00193076 82 59 C89.00668416 46.68883977 95.9600736 34.354114 102.68847656 21.88818359 C106.67752198 14.51774304 110.83744224 7.28447609 115 0 C131.17 0 147.34 0 164 0 C168.2570515 13.98745494 172.48486659 27.9630024 176.49609375 42.01953125 C176.97924049 43.70825342 177.46248348 45.39694806 177.94581604 47.08561707 C178.94101974 50.56443571 179.93478047 54.04366226 180.92749023 57.52319336 C182.20090006 61.98597097 183.47859349 66.4475102 184.75735378 70.90875721 C185.74829277 74.36791094 186.73679555 77.82775715 187.72456551 81.287817 C188.19543371 82.93593235 188.66712111 84.58381388 189.13964653 86.23145485 C189.79280541 88.51011867 190.44262418 90.78970851 191.09155273 93.06958008 C191.38363113 94.0846035 191.38363113 94.0846035 191.68161011 95.12013245 C193 99.77154158 193 99.77154158 193 102 C180.46 102 167.92 102 155 102 C151.62547216 91.87641648 151.62547216 91.87641648 150.421875 87.36352539 C150.01630371 85.85134178 150.01630371 85.85134178 149.60253906 84.30860901 C149.18053223 82.71918739 149.18053223 82.71918739 148.75 81.09765625 C148.45061523 79.97991318 148.15123047 78.8621701 147.84277344 77.71055603 C146.89259425 74.16189003 145.94602743 70.61227485 145 67.0625 C144.05354014 63.5164143 143.1062576 59.97055413 142.15722656 56.42515564 C141.56904224 54.22730938 140.98236048 52.02906023 140.39746094 49.83033752 C138.70963811 43.51756707 136.91882902 37.24651233 135 31 C134.54786133 31.91475098 134.09572266 32.82950195 133.62988281 33.77197266 C118.43225358 64.48747458 118.43225358 64.48747458 111.3125 77.5 C110.85713867 78.33225098 110.40177734 79.16450195 109.93261719 80.02197266 C108.63959016 82.35870507 107.32701269 84.68241065 106 87 C105.49412354 87.88550537 104.98824707 88.77101074 104.46704102 89.68334961 C103.94940186 90.57030518 103.4317627 91.45726074 102.8984375 92.37109375 C102.19920166 93.57270142 102.19920166 93.57270142 101.48583984 94.79858398 C98.56407289 99.12746545 94.95695064 102.34768312 90 104 C87.21554845 104.14880933 84.47257615 104.23107 81.6875 104.25 C80.94048828 104.270625 80.19347656 104.29125 79.42382812 104.3125 C73.67655071 104.35286718 69.7527258 103.47270576 65.32958984 99.49951172 C60.20384164 94.13993244 57.01774013 87.8572234 53.74603271 81.25796509 C52.14386516 78.02634232 50.5042882 74.81367603 48.87109375 71.59765625 C48.5451825 70.95307968 48.21927124 70.30850311 47.88348389 69.64439392 C44.39160193 62.75485349 40.6867787 55.98624895 36.94458008 49.22998047 C33.81226857 43.55748535 30.8562091 37.81646251 28 32 C26.01334591 35.51924723 25.1005384 39.08438414 24.1171875 42.9921875 C23.94176422 43.68290344 23.76634094 44.37361938 23.58560181 45.08526611 C23.20805217 46.57330337 22.83249812 48.06184811 22.45874023 49.55084229 C21.4694828 53.48956394 20.46405474 57.42416494 19.4609375 61.359375 C19.2572052 62.16025543 19.0534729 62.96113586 18.84356689 63.7862854 C16.94274481 71.25018013 15.00077985 78.70277947 13.0244751 86.14703369 C12.6752247 87.46417061 12.32736143 88.78167612 11.980896 90.09954834 C11.50106258 91.92402918 11.01629122 93.74720925 10.53125 95.5703125 C10.25861328 96.59914551 9.98597656 97.62797852 9.70507812 98.68798828 C9 101 9 101 8 102 C5.1883662 102.08861992 2.40141745 102.11522355 -0.41015625 102.09765625 C-1.25219101 102.0962413 -2.09422577 102.09482635 -2.96177673 102.09336853 C-5.66205335 102.08775263 -8.36224828 102.07519748 -11.0625 102.0625 C-12.88867068 102.05748705 -14.71484266 102.05292379 -16.54101562 102.04882812 C-21.02737542 102.03777804 -25.51367384 102.02050279 -30 102 C-20.11164831 67.96665319 -10.09239891 33.97337399 0 0 Z M1 5 C1 5.99 1 6.98 1 8 C2.32 8 3.64 8 5 8 C5 7.01 5 6.02 5 5 C3.68 5 2.36 5 1 5 Z M115 5 C115 5.99 115 6.98 115 8 C120.28 8 125.56 8 131 8 C131 7.01 131 6.02 131 5 C125.72 5 120.44 5 115 5 Z M150 5 C150 5.99 150 6.98 150 8 C150.99 8 151.98 8 153 8 C153 7.01 153 6.02 153 5 C152.01 5 151.02 5 150 5 Z " fill="#FFFFFF" transform="translate(908,161)"/>
<path d="M0 0 C7.40116261 -0.1780279 14.80176984 -0.30030009 22.20458984 -0.38452148 C24.72075026 -0.4196435 27.23676863 -0.46735304 29.75244141 -0.52807617 C33.3769846 -0.61335111 36.99963394 -0.65277338 40.625 -0.68359375 C41.74302002 -0.71972275 42.86104004 -0.75585175 44.01293945 -0.79307556 C49.70448757 -0.79591312 53.19223004 -0.44336273 57.578125 3.36499023 C58.73913614 4.55714062 59.88157912 5.76780516 61 7 C62.03193864 7.95849783 63.07309282 8.90721023 64.125 9.84375 C65.07375 10.7203125 66.0225 11.596875 67 12.5 C70.93194867 16.12187167 74.90216297 19.68960906 78.94140625 23.19140625 C81.4895665 25.4301125 83.99410593 27.71410212 86.5 30 C90.2827547 33.44882877 94.08807593 36.86443817 97.953125 40.22070312 C100.05197149 42.04517751 102.14578323 43.87528065 104.23828125 45.70703125 C105.30042847 46.63672729 105.30042847 46.63672729 106.3840332 47.58520508 C106.91730225 48.0520874 107.45057129 48.51896973 108 49 C107.99830811 47.03994019 107.99830811 47.03994019 107.99658203 45.0402832 C108.00025728 40.18502542 108.04308518 35.33076067 108.09765625 30.47583008 C108.11580747 28.37596028 108.12338635 26.27597109 108.12011719 24.17602539 C108.11725762 21.15417262 108.15259799 18.1347915 108.1953125 15.11328125 C108.18621857 14.17664139 108.17712463 13.24000153 108.16775513 12.27497864 C108.30611134 6.04898479 108.30611134 6.04898479 110.13778687 3.279953 C113.84212673 -0.2115545 117.24452838 -0.59306563 122.1484375 -0.48828125 C122.80582916 -0.48120651 123.46322083 -0.47413177 124.14053345 -0.46684265 C126.21989612 -0.43907264 128.29646552 -0.37638444 130.375 -0.3125 C131.79292958 -0.28739387 133.21090179 -0.26458475 134.62890625 -0.24414062 C138.08682988 -0.18930824 141.54314188 -0.10316611 145 0 C145 1.65 145 3.3 145 5 C144.34 5 143.68 5 143 5 C143 5.99 143 6.98 143 8 C143.66 8 144.32 8 145 8 C145.04650391 17.6060621 145.08196047 27.21208496 145.10362434 36.8182354 C145.11402608 41.27958043 145.12811874 45.74084798 145.15087891 50.20214844 C145.1727368 54.51396564 145.18459573 58.82570869 145.18975449 63.13757706 C145.19342714 64.77606497 145.2005984 66.41454919 145.21146011 68.05300522 C145.35775693 91.05280384 145.35775693 91.05280384 140.25 97.4375 C139.78078125 98.05496094 139.3115625 98.67242187 138.828125 99.30859375 C134.37735172 103.42651005 130.0042348 104.43093455 124.0625 104.4375 C122.31646484 104.46650391 122.31646484 104.46650391 120.53515625 104.49609375 C113.58882813 103.52130516 108.97649215 99.41123077 104.0625 94.6875 C103.01236829 93.70113093 101.96158739 92.71545256 100.91015625 91.73046875 C99.94980469 90.82941406 98.98945313 89.92835938 98 89 C96.67407815 87.82491697 95.34180084 86.65691805 94 85.5 C90.60949156 82.56155935 87.30033018 79.53883698 84 76.5 C80.04140277 72.8558306 76.04823168 69.26086221 71.984375 65.734375 C67.94625309 62.20499286 63.98085319 58.59365774 60 55 C57.50858561 52.75695091 55.01641063 50.51475404 52.5234375 48.2734375 C50.77556329 46.6987273 49.03098862 45.1203499 47.2890625 43.5390625 C46.40992188 42.74242187 45.53078125 41.94578125 44.625 41.125 C43.83351562 40.40570313 43.04203125 39.68640625 42.2265625 38.9453125 C40.21323169 37.18629716 38.14671176 35.59017772 36 34 C36.04825928 35.30557861 36.09651855 36.61115723 36.14624023 37.95629883 C36.30663691 42.84496986 36.36614758 47.73076345 36.39672852 52.62182617 C36.4236645 54.72976862 36.4772173 56.83755792 36.55883789 58.9440918 C37.18913072 75.8977644 37.18913072 75.8977644 33.60687256 80.97421265 C30.13935618 84.39290377 26.14528008 86.75276625 21.85305786 89.00064087 C19.36414978 90.34291575 17.16618141 91.98508597 14.921875 93.69921875 C13.53207825 94.69646779 12.14149461 95.69262142 10.75 96.6875 C10.03199219 97.21021484 9.31398437 97.73292969 8.57421875 98.27148438 C7.88457031 98.76326172 7.19492188 99.25503906 6.484375 99.76171875 C5.58283691 100.410802 5.58283691 100.410802 4.66308594 101.07299805 C3 102 3 102 0 102 C0 70.98 0 39.96 0 8 C3.3 8 6.6 8 10 8 C10 7.01 10 6.02 10 5 C6.7 5 3.4 5 0 5 C0 3.35 0 1.7 0 0 Z M29 5 C29 5.99 29 6.98 29 8 C29.99 8 30.98 8 32 8 C32 7.01 32 6.02 32 5 C31.01 5 30.02 5 29 5 Z M45 5 C45 5.99 45 6.98 45 8 C48.63 8 52.26 8 56 8 C56 7.01 56 6.02 56 5 C52.37 5 48.74 5 45 5 Z M119 5 C119 5.99 119 6.98 119 8 C122.63 8 126.26 8 130 8 C130 7.01 130 6.02 130 5 C126.37 5 122.74 5 119 5 Z " fill="#FFFFFF" transform="translate(211,161)"/>
<path d="M0 0 C12.54 0 25.08 0 38 0 C38 1.65 38 3.3 38 5 C37.01 5 36.02 5 35 5 C35 5.99 35 6.98 35 8 C35.99 8 36.98 8 38 8 C38.00546844 9.00691895 38.00546844 9.00691895 38.01104736 10.03417969 C38.05297008 17.04282827 38.12238482 24.05082797 38.20751953 31.05908203 C38.23568474 33.67197163 38.25692129 36.28494573 38.27099609 38.89794922 C38.29248613 42.66157146 38.33917143 46.42418248 38.390625 50.1875 C38.39185364 51.34926758 38.39308228 52.51103516 38.39434814 53.70800781 C38.50925207 60.12103203 38.88525391 65.80778431 43 71 C57.18721739 81.29616886 82.04842005 79.221434 98.5625 77.3125 C104.43481872 76.31660969 110.40886707 74.97210378 115 71 C119.73814365 63.74737825 119.60417878 56.89657333 119.609375 48.4375 C119.62437801 47.03643909 119.64110958 45.63539574 119.65948486 44.234375 C119.70293366 40.57166675 119.72310693 36.90919698 119.73822021 33.24627686 C119.75787313 29.49867937 119.79962035 25.7513301 119.83984375 22.00390625 C119.91696664 14.66911318 119.95754975 7.33540289 120 0 C132.87 0 145.74 0 159 0 C159 1.65 159 3.3 159 5 C156.36 5 153.72 5 151 5 C151 5.99 151 6.98 151 8 C153.64 8 156.28 8 159 8 C159.07671175 15.57643063 159.12887489 23.15275935 159.16479492 30.72949219 C159.17978577 33.30147036 159.20018528 35.8734234 159.22631836 38.4453125 C159.61896593 78.11041598 159.61896593 78.11041598 145.75 92.8125 C134.1728081 103.60121205 119.47291453 108.14152144 104 110 C103.18015625 110.11085938 102.3603125 110.22171875 101.515625 110.3359375 C73.47217113 113.55832195 37.90022868 112.15026556 15 94 C6.29312389 87.00001643 1.60191092 76.96510825 0 66 C-0.26473296 60.89281254 -0.23384842 55.79520138 -0.1953125 50.68359375 C-0.19157522 49.21672256 -0.18873163 47.74984884 -0.18673706 46.28297424 C-0.17915685 42.45088624 -0.15955768 38.61895356 -0.1373291 34.78692627 C-0.11312048 30.17374632 -0.10406292 25.560514 -0.09242249 20.94728851 C-0.07312911 13.9647515 -0.0347679 6.98255424 0 0 Z M6 5 C6 5.99 6 6.98 6 8 C9.63 8 13.26 8 17 8 C17 7.01 17 6.02 17 5 C13.37 5 9.74 5 6 5 Z M129 5 C129 5.99 129 6.98 129 8 C132.3 8 135.6 8 139 8 C139 7.01 139 6.02 139 5 C135.7 5 132.4 5 129 5 Z " fill="#F49537" transform="translate(230,21)"/>
<path d="M0 0 C14.36070127 -0.25803686 28.72103839 -0.45072237 43.08358955 -0.56993389 C49.75408969 -0.62717235 56.42260741 -0.7047122 63.09228516 -0.82983398 C69.53745611 -0.94997764 75.98112891 -1.01525562 82.42733383 -1.04364967 C84.87774091 -1.06386479 87.32807244 -1.10334155 89.77783585 -1.16303062 C112.59393679 -1.69648315 112.59393679 -1.69648315 122.25326729 6.96583271 C124.16900059 8.84878341 125.79282035 10.5856407 127 13 C125.144105 13.00879936 125.144105 13.00879936 123.25071716 13.01777649 C111.58286702 13.07502345 99.9152029 13.14779569 88.24754238 13.23571491 C82.24927047 13.28041611 76.25106645 13.31967302 70.25268555 13.34643555 C64.4624298 13.37247067 58.67243531 13.41287515 52.88234138 13.46318626 C50.67482824 13.47985345 48.46726991 13.49136864 46.25970268 13.49761391 C43.16431249 13.50725634 40.06959049 13.53531835 36.97436523 13.56762695 C35.60950485 13.56547432 35.60950485 13.56547432 34.21707153 13.5632782 C28.7508354 13.64381099 24.8208906 14.34751044 20 17 C18.66666667 19.33333333 18.66666667 19.33333333 19 22 C20.13749195 24.78508316 20.13749195 24.78508316 22 27 C25.96965212 28.32321737 29.77593687 28.1527175 33.91503906 28.15771484 C35.28406876 28.16533592 35.28406876 28.16533592 36.68075562 28.17311096 C38.6663339 28.18382036 40.65192429 28.1924383 42.63751984 28.19923019 C45.79240654 28.21103773 48.9471575 28.23050084 52.10198975 28.25234985 C61.07380562 28.31386512 70.0456109 28.36777708 79.01757812 28.40136719 C84.50657423 28.42246923 89.9953279 28.45790614 95.48418427 28.50212479 C97.56507231 28.51617522 99.64600331 28.52498212 101.72693634 28.52817917 C136.23885183 28.58675746 136.23885183 28.58675746 148.90234375 39.6640625 C155.3500031 46.56889085 157.32467724 55.53447704 157.1484375 64.8046875 C156.4597845 74.98950287 153.3936857 84.11295837 145.9375 91.3125 C135.8303389 99.63703368 123.13722142 102.33566222 110.34936523 102.22705078 C109.43121536 102.22734283 108.51306549 102.22763489 107.5670929 102.22793579 C104.56416014 102.22655419 101.5614826 102.21104859 98.55859375 102.1953125 C96.46395503 102.1915782 94.36931456 102.1887332 92.27467346 102.18673706 C86.78546246 102.17913342 81.2963588 102.15951321 75.80718994 102.1373291 C70.19634452 102.11680001 64.5854816 102.10772028 58.97460938 102.09765625 C47.98302599 102.07626406 36.99152195 102.04216788 26 102 C26.94133028 100.57455599 27.8844765 99.15031108 28.82836914 97.7265625 C29.35338516 96.93330566 29.87840118 96.14004883 30.41932678 95.32275391 C32.61548577 92.09556133 34.99538027 89.04287407 37.4375 86 C38.33232192 84.87523118 39.22684801 83.75022696 40.12109375 82.625 C40.57110748 82.08795441 41.02112122 81.55090881 41.48477173 80.99758911 C43.0672682 79.02882561 43.0672682 79.02882561 44.1857605 76.71212769 C45.86563646 73.8193237 47.3234697 72.03472875 50 70 C55.93590882 68.68641259 61.77234307 68.88356727 67.82421875 69.0078125 C69.5758316 69.0097787 71.32745442 69.00734011 73.07905579 69.0007019 C77.67646326 68.99309068 82.27188688 69.03646963 86.86889648 69.09332275 C94.23590069 69.1761178 101.6032901 69.18263411 108.97068214 69.18636703 C111.54139933 69.19519974 114.11108395 69.22662744 116.68156433 69.26150513 C118.25604969 69.27134002 119.83053802 69.28071353 121.4050293 69.28955078 C122.11835922 69.30512527 122.83168915 69.32069977 123.56663513 69.33674622 C126.67532346 69.3389516 128.72099436 69.15832229 131.45027161 67.60958862 C133.17050327 66.11604236 133.17050327 66.11604236 133.390625 63.95703125 C133.34421875 63.24933594 133.2978125 62.54164063 133.25 61.8125 C133.1675 60.554375 133.085 59.29625 133 58 C127.78728592 54.82899346 123.72841561 54.57223447 117.8203125 54.61523438 C116.91533524 54.6098616 116.01035797 54.60448883 115.07795715 54.59895325 C113.11863332 54.58919464 111.15926636 54.58622529 109.19992065 54.58930969 C106.08693038 54.59380497 102.97450352 54.57973529 99.86157227 54.56091309 C93.24105738 54.5241707 86.62060177 54.51044543 80 54.5 C72.35051464 54.48787499 64.70130379 54.46602857 57.05194092 54.41999817 C54.00668158 54.40655539 50.96178062 54.41057721 47.91650391 54.41540527 C33.41770596 54.37492057 17.07982826 54.25721134 5.71484375 43.921875 C-2.10643537 35.57539202 -4.30040472 27.52040301 -4.23046875 16.21875 C-3.8312836 10.64368959 -2.51007096 5.02014192 0 0 Z M0 5 C0 5.99 0 6.98 0 8 C5.61 8 11.22 8 17 8 C17 7.01 17 6.02 17 5 C11.39 5 5.78 5 0 5 Z M35 5 C35 5.99 35 6.98 35 8 C36.32 8 37.64 8 39 8 C39 7.01 39 6.02 39 5 C37.68 5 36.36 5 35 5 Z M51 5 C51 5.99 51 6.98 51 8 C54.63 8 58.26 8 62 8 C62 7.01 62 6.02 62 5 C58.37 5 54.74 5 51 5 Z M75 5 C75 5.99 75 6.98 75 8 C80.28 8 85.56 8 91 8 C91 7.01 91 6.02 91 5 C85.72 5 80.44 5 75 5 Z M109 5 C109 5.99 109 6.98 109 8 C110.32 8 111.64 8 113 8 C113 7.01 113 6.02 113 5 C111.68 5 110.36 5 109 5 Z " fill="#FFFFFF" transform="translate(1097,161)"/>
<path d="M0 0 C12.54 0 25.08 0 38 0 C38 9.9 38 19.8 38 30 C42.37686849 26.17024007 46.71979143 22.36343455 51 18.4375 C62.59920805 8 62.59920805 8 67 8 C67.0928125 7.13375 67.0928125 7.13375 67.1875 6.25 C68.43969066 2.78239511 69.79073097 1.88668341 73 0 C77.0290491 -0.56180647 81.02104246 -0.46459007 85.08203125 -0.390625 C86.83600471 -0.38213531 86.83600471 -0.38213531 88.62541199 -0.37347412 C92.35486025 -0.35110936 96.0833428 -0.30091 99.8125 -0.25 C102.34308507 -0.22993525 104.87368522 -0.21168445 107.40429688 -0.1953125 C113.60319328 -0.15124409 119.80152764 -0.08432971 126 0 C126 0.66 126 1.32 126 2 C122.86865248 5.13134752 121.19946488 5.98719433 116.70703125 6.03515625 C113.45406193 5.77619577 110.23298776 5.44129803 107 5 C107 5.99 107 6.98 107 8 C109.97 8 112.94 8 116 8 C111.68163739 12.62556321 106.8250801 16.30072515 101.75 20.0625 C100.44047363 21.04126099 100.44047363 21.04126099 99.10449219 22.03979492 C92.51279395 26.94301164 85.82864489 31.70585016 79.03027344 36.31860352 C77.31938784 37.49768815 75.65399923 38.74236069 74 40 C74 40.66 74 41.32 74 42 C75.96905198 43.51678536 77.94442836 44.92115392 80 46.3125 C91.47650574 54.29821673 102.1844883 63.17902641 112.43359375 72.6796875 C115.01189297 75.01075255 117.66494073 77.19915385 120.375 79.375 C125.79755273 83.7502786 130.87751341 88.43358877 135.96484375 93.1875 C139.10280578 96.1145643 142.330954 98.92656199 145.609375 101.6953125 C147 103 147 103 148 105 C140.6540179 105.2295529 133.30897079 105.3863641 125.96020508 105.49438477 C123.46441082 105.5394457 120.9688515 105.60071546 118.47387695 105.67895508 C95.05068282 106.39470277 95.05068282 106.39470277 88.20703125 100.83984375 C86.75120797 99.27465272 85.3406443 97.66490758 84 96 C82.84086569 94.91794682 81.66567135 93.85260129 80.46875 92.8125 C79.47682491 91.87747805 78.48720308 90.94000612 77.5 90 C73.60736669 86.3480527 69.66630106 82.84272992 65.5 79.5 C60.72716857 75.66779958 56.22694165 71.60912898 51.765625 67.42382812 C47.58782317 63.50780672 43.3193812 59.77945855 39 56 C38.67 68.21 38.34 80.42 38 93 C31.21710092 95.54358716 24.43620872 97.86113573 17.54345703 100.0715332 C15.60722765 100.69320624 13.67273519 101.32009273 11.73828125 101.94726562 C9.90716797 102.53604492 9.90716797 102.53604492 8.0390625 103.13671875 C6.92740723 103.49467529 5.81575195 103.85263184 4.67041016 104.22143555 C2 105 2 105 0 105 C0 70.35 0 35.7 0 0 Z M5 5 C5 5.99 5 6.98 5 8 C10.28 8 15.56 8 21 8 C21 7.01 21 6.02 21 5 C15.72 5 10.44 5 5 5 Z M85 5 C85 5.99 85 6.98 85 8 C90.28 8 95.56 8 101 8 C101 7.01 101 6.02 101 5 C95.72 5 90.44 5 85 5 Z " fill="#FFFFFF" transform="translate(0,161)"/>
<path d="M0 0 C2.3083998 -0.00073572 4.6168012 -0.00540772 6.92518616 -0.01371765 C13.1928357 -0.02484699 19.4589835 0.01988144 25.72635412 0.07505822 C32.29669511 0.12395143 38.86703618 0.12330308 45.43753052 0.12846375 C56.48221114 0.1425784 67.52635589 0.19259947 78.57080078 0.26464844 C89.90187201 0.33850371 101.23266687 0.38821946 112.56396484 0.40820312 C113.26043188 0.40943683 113.95689891 0.41067054 114.67447101 0.41194163 C117.47508107 0.41684619 120.27569123 0.42169557 123.07630157 0.42644401 C134.56695851 0.44657539 146.05755994 0.48564159 157.54815531 0.52766013 C160.15505756 0.53704507 162.76196169 0.54592406 165.3688674 0.55429482 C172.81511991 0.57855122 180.26119223 0.61275339 187.70731926 0.66261101 C189.954522 0.67632924 192.20174672 0.6869012 194.44898033 0.69393158 C241.83610973 0.85303876 241.83610973 0.85303876 258.71923828 15.0534668 C258.71923828 15.7134668 258.71923828 16.3734668 258.71923828 17.0534668 C162.35923828 17.0534668 65.99923828 17.0534668 -33.28076172 17.0534668 C-31.96076172 14.7434668 -30.64076172 12.4334668 -29.28076172 10.0534668 C-28.90503462 9.19041522 -28.52930752 8.32736364 -28.14219475 7.43815899 C-22.66026779 -2.70975853 -9.9224174 -0.13766209 0 0 Z " fill="#F49537" transform="translate(549.28076171875,0.946533203125)"/>
<path d="M0 0 C0.80817327 -0.00297112 1.61634653 -0.00594224 2.4490099 -0.0090034 C5.13691577 -0.01762309 7.82477675 -0.01919292 10.51269531 -0.02069092 C12.44848219 -0.02532395 14.38426817 -0.03034926 16.3200531 -0.03573608 C21.56635379 -0.04881739 26.81264171 -0.05529696 32.05895615 -0.05974674 C35.34298624 -0.06268504 38.6270129 -0.06679131 41.91104126 -0.07125092 C52.20426447 -0.08491608 62.49747976 -0.09458691 72.7907114 -0.09845281 C84.63830763 -0.10292794 96.48578816 -0.12045471 108.33334923 -0.1494534 C117.51330484 -0.1711359 126.69322807 -0.18116062 135.873209 -0.18249393 C141.34540897 -0.18353747 146.81750004 -0.18934856 152.28967285 -0.20731354 C157.44435833 -0.22390764 162.59885438 -0.22589521 167.75355721 -0.21717453 C169.63354058 -0.21641012 171.51353463 -0.22066701 173.39349174 -0.23063278 C193.34887194 -0.33011673 214.59659265 1.83359124 230.59082031 15.14044189 C230.59082031 15.47044189 230.59082031 15.80044189 230.59082031 16.14044189 C138.19082031 16.14044189 45.79082031 16.14044189 -49.40917969 16.14044189 C-36.87954669 3.61080889 -17.11497795 -0.02003808 0 0 Z " fill="#FFFFFF" transform="translate(439.4091796875,141.85955810546875)"/>
<path d="M0 0 C12.87 0 25.74 0 39 0 C39 33.99 39 67.98 39 103 C26.13 103 13.26 103 0 103 C0 69.01 0 35.02 0 0 Z M5 5 C5 5.99 5 6.98 5 8 C6.32 8 7.64 8 9 8 C9 7.01 9 6.02 9 5 C7.68 5 6.36 5 5 5 Z M22 5 C22 5.99 22 6.98 22 8 C25.3 8 28.6 8 32 8 C32 7.01 32 6.02 32 5 C28.7 5 25.4 5 22 5 Z " fill="#FFFFFF" transform="translate(160,161)"/>
<path d="M0 0 C2.32434691 -0.02969682 4.64850445 -0.08451838 6.97167969 -0.1640625 C29.38607026 -0.92985468 29.38607026 -0.92985468 37.09106445 6.07275391 C38.9435281 7.92146215 40.59344892 9.8263507 42.2902832 11.83056641 C43.9402832 13.48056641 45.5902832 15.13056641 47.2902832 16.83056641 C12.9702832 16.83056641 -21.3497168 16.83056641 -56.7097168 16.83056641 C-42.12143619 -0.1890943 -20.95662364 0.1807244 0 0 Z " fill="#FFFFFF" transform="translate(1156.709716796875,141.16943359375)"/>
<path d="M0 0 C1.23024399 0.01131958 2.46048798 0.02263916 3.72801208 0.03430176 C7.63150169 0.07884553 11.53122711 0.17918329 15.43359375 0.28125 C18.09044101 0.32594781 20.74725293 0.35790077 23.40429688 0.390625 C29.89449887 0.47850962 36.38252736 0.61213186 42.87109375 0.78125 C36.82375454 7.45417602 29.99363369 14.05890604 20.6652832 14.68945312 C18.43791212 14.68820727 16.21024616 14.64423785 13.984375 14.5625 C12.801353 14.55118042 11.61833099 14.53986084 10.39945984 14.52819824 C6.6591178 14.48378285 2.92275656 14.38347484 -0.81640625 14.28125 C-3.36778278 14.24107849 -5.91922002 14.20458423 -8.47070312 14.171875 C-14.69143865 14.08416199 -20.90988802 13.95067492 -27.12890625 13.78125 C-26.0302845 12.64718884 -24.9228172 11.52114776 -23.78855896 10.42272949 C-22.57126368 9.21876361 -21.39891229 7.9689082 -20.25453186 6.69543457 C-13.9090476 0.16929352 -8.86034862 -0.31043911 0 0 Z " fill="#FFFFFF" transform="translate(105.12890625,144.21875)"/>
<path d="M0 0 C3.90150698 3.71238545 5.74016173 5.98126371 7.80078125 11.1328125 C-9.68921875 11.1328125 -27.17921875 11.1328125 -45.19921875 11.1328125 C-42.11804623 3.42988119 -36.68506917 -1.85197532 -29.0546875 -5.1875 C-19.04976543 -8.85246093 -8.03914714 -6.82542155 0 0 Z " fill="#F49537" transform="translate(944.19921875,6.8671875)"/>
<path d="M0 0 C12.87 0 25.74 0 39 0 C39 5.28 39 10.56 39 16 C26.13 16 13.26 16 0 16 C0 10.72 0 5.44 0 0 Z " fill="#F49537" transform="translate(350,2)"/>
<path d="M0 0 C3.99577053 2.72052462 7.13934085 6.07507137 10.38671875 9.625 C12.86171875 12.1 12.86171875 12.1 15.38671875 14.625 C-0.45328125 14.625 -16.29328125 14.625 -32.61328125 14.625 C-31.66836395 8.01057892 -31.22625688 5.07283331 -26.61328125 0.625 C-17.97581816 -5.16738156 -8.92441016 -4.93154219 0 0 Z " fill="#FFFFFF" transform="translate(244.61328125,143.375)"/>
<path d="M0 0 C5.35194471 4.68691016 6.98325671 7.94139847 9 15 C-5.85 15 -20.7 15 -36 15 C-33.67498794 8.02496383 -30.36889735 2.77861872 -24.046875 -1.2421875 C-16.55583647 -4.43958199 -6.99758248 -4.34632452 0 0 Z " fill="#FFFFFF" transform="translate(1062,143)"/>
<path d="M0 0 C6.70163497 3.88061819 10.35872609 9.71745217 13.75 16.5 C-1.43 16.5 -16.61 16.5 -32.25 16.5 C-29.36018281 8.79382082 -27.47799307 3.88027861 -20.125 0.125 C-13.56595852 -2.47242408 -6.54625472 -2.83628831 0 0 Z " fill="#FFFFFF" transform="translate(941.25,141.5)"/>
<path d="M0 0 C12.54 0 25.08 0 38 0 C38 5.28 38 10.56 38 16 C25.46 16 12.92 16 0 16 C0 10.72 0 5.44 0 0 Z " fill="#F49537" transform="translate(402,2)"/>
<path d="M0 0 C12.54 0 25.08 0 38 0 C38 5.28 38 10.56 38 16 C25.46 16 12.92 16 0 16 C0 10.72 0 5.44 0 0 Z " fill="#F49537" transform="translate(230,2)"/>
<path d="M0 0 C0 5.28 0 10.56 0 16 C-12.87 16 -25.74 16 -39 16 C-39 14.68 -39 13.36 -39 12 C-34.85637029 10.61049646 -30.71206256 9.22303913 -26.56713867 7.83740234 C-25.15972799 7.36659822 -23.75249795 6.89525372 -22.34545898 6.42333984 C-20.31282043 5.74171061 -18.27952134 5.06208374 -16.24609375 4.3828125 C-15.02591553 3.97434082 -13.8057373 3.56586914 -12.54858398 3.14501953 C-2.80170576 0 -2.80170576 0 0 0 Z " fill="#FFFFFF" transform="translate(199,142)"/>
<path d="M0 0 C5.03126538 0.59241378 9.65258285 1.68413933 14.46484375 3.28515625 C15.14301651 3.50570175 15.82118927 3.72624725 16.51991272 3.95347595 C18.66091333 4.65109808 20.79920079 5.35664663 22.9375 6.0625 C24.39891573 6.54024249 25.86050284 7.01746107 27.32226562 7.49414062 C30.88351923 8.65671641 34.44236408 9.82640258 38 11 C38 11.66 38 12.32 38 13 C25.46 13 12.92 13 0 13 C0 8.71 0 4.42 0 0 Z " fill="#FFFFFF" transform="translate(0,145)"/>
<path d="M0 0 C0 5.28 0 10.56 0 16 C-7.59 16 -15.18 16 -23 16 C-17.36650287 10.36650287 -17.36650287 10.36650287 -14.08203125 8.10546875 C-13.38529297 7.62529297 -12.68855469 7.14511719 -11.97070312 6.65039062 C-11.25849609 6.16763672 -10.54628906 5.68488281 -9.8125 5.1875 C-9.08869141 4.68541016 -8.36488281 4.18332031 -7.61914062 3.66601562 C-2.25728104 0 -2.25728104 0 0 0 Z " fill="#FFFFFF" transform="translate(356,142)"/>
</svg>
