<?xml version="1.0" encoding="UTF-8"?> <svg xmlns="http://www.w3.org/2000/svg" id="Layer_1" data-name="Layer 1" viewBox="0 0 900 140"><defs><style>.cls-1{fill:#010101;}.cls-2,.cls-3{fill:#fff;}.cls-3{font-size:18px;font-family:Quantico-Regular, Quantico;}</style></defs><g id="layer1"><g id="g99"><g id="g40"><path id="path28" class="cls-1" d="M503.57,4.53l-.38,0H368.28l21,17.57H231.14L214.51,4.61l-.6.17-8.16-.21H162.4L145.85,22.13h-8.76l-17-17.57H42l18.81,15.9,9.31,8.66c-.79,1.42-1.59,3.21-2.64,5.31-1.47,2.93-2.93,6.15-4.69,10L57.27,55.81,42.63,87.15A70.78,70.78,0,0,1,34.72,100c-8,9.54-20.11,17.7-30.72,24l29.84,11.41H74.55l8.73-17.6h39.14c2.62,7.33,8.89,13.47,17.14,17.6h43.93c-6.81-5.23-15.16-8.92-15.56-17.6H342.72L361,135.17h61.5a46.91,46.91,0,0,0,14.06-2.34,54.05,54.05,0,0,0,13.18-6.14,42.7,42.7,0,0,0,11.42-8.79l0,0H749.45l10.87,11.23,0,0a20.74,20.74,0,0,0,5.31,3.78,25.61,25.61,0,0,0,10.54,2.62h84.64l-13.77-10.54a5.91,5.91,0,0,1-1.46-2.64,40.82,40.82,0,0,1,0-6.44,61.55,61.55,0,0,1,3.87-11l25.12-53.52a75.24,75.24,0,0,1,7-11.29,46,46,0,0,1,7.91-8.49A16.88,16.88,0,0,1,896,27.7l-1.7-11.09.15,0-.19-.18,0-.12h-.1L882.53,4.57H750.16l21.08,17.56H521.07Z"></path><path id="path34" class="cls-2" d="M58.44,9.85l19.62,16.4L76.6,28.88l-3.52,7c-1.46,2.93-2.93,6.15-4.68,10s-3.52,7.61-5.57,11.42L48.19,88.63a61.43,61.43,0,0,1-8.49,14.05,62.08,62.08,0,0,1-8.2,8.79A29.36,29.36,0,0,1,22.71,117h36.9c.29-.29.59-1.46,1.47-3.22s2.05-4.1,3.22-7c1.46-2.93,2.93-6.15,4.68-9.66S72.5,89.8,74.25,86s3.52-7.32,5.28-11.13c1.75-3.51,3.22-6.73,4.68-9.66l3.52-7c.87-2.05,1.46-2.93,1.46-3.51V97.41h18.74c.88-.87,2.64-2.63,4.69-5s4.39-4.68,7-7.61,5.56-5.86,8.49-9.08,5.86-6.15,8.49-9.08,5-5.27,7-7.61c2.05-2,3.51-3.81,4.39-4.69L132,88c-2.64,5.86-4.4,10.54-5,14.06-.3,3.8-.3,6.73.29,8.78a8.45,8.45,0,0,0,3.52,5.57h24.6a9.22,9.22,0,0,1-3.52-5.57c-.58-2-.58-5-.29-8.78a45.19,45.19,0,0,1,5-14.06l20.79-43.63a102.15,102.15,0,0,1,10.25-17.57A137.6,137.6,0,0,1,197,16a60,60,0,0,1,9.37-7H165.62L114.08,64,114.67,9H58.44Zm326,0L404,26.25h71.45L455,33.86l-5.56,12a10.2,10.2,0,0,1-2.64,3.51,18.94,18.94,0,0,1-3.8,2.93,29.92,29.92,0,0,1-4.4,2,12,12,0,0,1-4.68.59H419.23l-7.61,16.4h14.64c2.93,0,5.27.87,6.45,2.63s1.46,3.81,0,6.44l-5,10.55a10.2,10.2,0,0,1-2.64,3.51,18.73,18.73,0,0,1-3.81,2.93,30.38,30.38,0,0,1-4.39,2,12,12,0,0,1-4.68.59H393.46l29.29-62.67H397.86L374.14,88a61.52,61.52,0,0,1-8.5,14.06,48.74,48.74,0,0,1-8.2,8.78,29.37,29.37,0,0,1-8.78,5.57h61.79a39.12,39.12,0,0,0,12.59-2,42.94,42.94,0,0,0,11.72-5.57,69.29,69.29,0,0,0,10.25-7.9,35.2,35.2,0,0,0,7-9.67l2.64-6.15c.88-2,1.76-3.51,2.34-5,.88-1.75,1.47-3.22,2.35-4.68a6.19,6.19,0,0,0,.58-3.81,5,5,0,0,0-1.76-3.22l-6.73-5.56,11.71-5.57a26.29,26.29,0,0,0,4.69-3.22,9.75,9.75,0,0,0,2.93-4.1l2.63-5.56a103.87,103.87,0,0,1,10.25-17.57A75.91,75.91,0,0,1,493,16a37.47,37.47,0,0,1,9.37-7h-118Zm382.17,0,19.62,16.4-9.37,19.91C775.05,50,775.34,52.9,778,55l29.87,25.18c2.34,1.76,2.64,4.39,1.17,7.91l-2.93,5.85,15.23,6.74H785.59a7.24,7.24,0,0,1-5.85-2.34q-1.77-2.64,0-6.15l5-10.54H732.59L752.21,98a14.57,14.57,0,0,0-2.05,7.32,10.78,10.78,0,0,0,1.76,6.15,10,10,0,0,0,5,4.1c2.05,1.17,4.69,1.46,7.91,1.46h67.94a9.22,9.22,0,0,1-3.51-5.56c-.59-2.06-.59-5-.3-8.79a45.45,45.45,0,0,1,5-14.06l4.4-9.66c1.75-3.81,1.46-6.74-1.18-8.79L807.26,45a5.47,5.47,0,0,1-2-3.52,6,6,0,0,1,.88-4.39l2.64-6.15-15.82-5h35.44c2.93,0,4.68.88,5.86,2.64s1.17,3.51,0,5.86l-2.93,6.44h24.6c3.51-7.32,6.73-12.89,10-17a56.48,56.48,0,0,1,8.79-9.37,23.67,23.67,0,0,1,8.49-5H860.86l-7,9.07,1.75-9.07h-89ZM194.91,27.42l-7,14.93H247l7-14.93Zm65.31,0-7,14.93h19.33L245.57,99.17h21.67l26.95-56.82h19.32l7-14.93Zm65.89,0,7,10.54L281,99.17h23.13l35.15-41.3-3.81,41.3h23.13l6.74-71.75H326.11Zm166.34,0-7,14.93h59.16l7-14.93Zm77.9,0,7,10.54L525.25,99.17h23.13l35.14-41.3-3.8,41.3h23.13l6.74-71.75H570.35Zm69.11,0L613.69,81.89a11.8,11.8,0,0,0-1.47,6.73A9.68,9.68,0,0,0,614,94.19a11.7,11.7,0,0,0,4.69,3.51A18,18,0,0,0,626,99.17h45.1l34-71.75h-22l-26.94,57.1h-14c-2.05,0-3.81-.58-4.69-2a4.45,4.45,0,0,1,0-4.68l23.72-50.37Zm71.16,0-7,14.93h19.33L696,99.17h21.67l26.94-56.82h19.33l7-14.93ZM202.23,54.65a28.7,28.7,0,0,0-8.49,1.47,29.62,29.62,0,0,0-8.2,3.8,31,31,0,0,0-7,5.57,25.42,25.42,0,0,0-4.69,6.73L160.94,99.46h59.15l7-14.64H189.64l3.8-8.2a11.18,11.18,0,0,1,4.4-4.69,13.85,13.85,0,0,1,6.44-2.05h29.58l7-14.93H202.23Zm297.83,0a28.7,28.7,0,0,0-8.49,1.47,29.62,29.62,0,0,0-8.2,3.8,31,31,0,0,0-7,5.57,25.37,25.37,0,0,0-4.68,6.73L458.77,99.46h59.16l7-14.64H487.47l3.81-8.2a11.09,11.09,0,0,1,4.39-4.69,13.85,13.85,0,0,1,6.44-2.05h29.58l7-14.93H500.06Z"></path></g></g></g><text class="cls-3" transform="translate(838.9 63.1)">TM</text></svg> 